<svg fill="#ccc" id="print--disabled" data-name="print--disabled" xmlns="http://www.w3.org/2000/svg" viewBox="0 0 22 22"><rect x="8" y="18" width="6" height="1"/><rect x="4" y="13" width="14" height="1"/><polygon points="6 9 6 1 14 1 16 3 16 9 17 9 17 3 14 0 5 0 5 9 6 9"/><polygon points="16 14 16 21 6 21 6 14 5 14 5 22 17 22 17 14 16 14"/><path d="M-44,13H-60a3,3,0,0,0-3,3v2a3,3,0,0,0,3,3h2V20h-2a2,2,0,0,1-2-2V16a2,2,0,0,1,2-2h16a2,2,0,0,1,2,2v2a2,2,0,0,1-2,2h-2v1h2a3,3,0,0,0,3-3V16A3,3,0,0,0-44,13Z" transform="translate(63 -4)"/></svg>